<?xml version="1.0" encoding="UTF-8"?>
<svg id="Calque_2" data-name="Calque 2" xmlns="http://www.w3.org/2000/svg" xmlns:xlink="http://www.w3.org/1999/xlink" viewBox="0 0 1500 388.13">
  <defs>
    <style>
      .cls-1 {
        fill: url(#Dégradé_sans_nom_241);
      }

      .cls-2 {
        fill: url(#Dégradé_sans_nom_206);
      }

      .cls-3 {
        fill: url(#Dégradé_sans_nom_232);
      }

      .cls-4 {
        fill: url(#Dégradé_sans_nom_190);
      }

      .cls-5 {
        fill: #f5f8fb;
      }
    </style>
    <linearGradient id="Dégradé_sans_nom_206" data-name="Dégradé sans nom 206" x1="226.32" y1="286.74" x2="53.59" y2="-12.42" gradientUnits="userSpaceOnUse">
      <stop offset="0" stop-color="#152138"/>
      <stop offset=".3" stop-color="#5d5ca6"/>
      <stop offset=".7" stop-color="#68c6df"/>
      <stop offset="1" stop-color="#bddcb7"/>
    </linearGradient>
    <linearGradient id="Dégradé_sans_nom_232" data-name="Dégradé sans nom 232" x1="92.51" y1="63.6" x2="54.99" y2="-1.39" gradientUnits="userSpaceOnUse">
      <stop offset="0" stop-color="#152138"/>
      <stop offset=".3" stop-color="#5d5ca6"/>
      <stop offset=".7" stop-color="#68c6df" stop-opacity=".5"/>
      <stop offset="1" stop-color="#bddcb7" stop-opacity="0"/>
    </linearGradient>
    <linearGradient id="Dégradé_sans_nom_241" data-name="Dégradé sans nom 241" x1="229.8" y1="278" x2="189.76" y2="208.65" gradientUnits="userSpaceOnUse">
      <stop offset="0" stop-color="#152138" stop-opacity="0"/>
      <stop offset=".3" stop-color="#5d5ca6" stop-opacity="0"/>
      <stop offset=".7" stop-color="#68c6df"/>
      <stop offset="1" stop-color="#bddcb7"/>
    </linearGradient>
    <linearGradient id="Dégradé_sans_nom_190" data-name="Dégradé sans nom 190" x1="286.37" y1="81.69" x2="242.61" y2="5.88" gradientUnits="userSpaceOnUse">
      <stop offset="0" stop-color="#152138"/>
      <stop offset=".3" stop-color="#5d5ca6"/>
      <stop offset=".7" stop-color="#68c6df"/>
      <stop offset="1" stop-color="#bddcb7"/>
    </linearGradient>
  </defs>
  <g id="Calque_1-2" data-name="Calque 1">
    <g>
      <g>
        <g>
          <path class="cls-2" d="M274.03,208.66L166.2,21.9c-5.84-10.12-15.28-17.37-26.58-20.39-11.29-3.03-23.08-1.47-33.21,4.37-9.51,5.49-16.48,14.16-19.8,24.56l-4.93-8.54c-5.84-10.12-15.28-17.37-26.58-20.39-1.23-.33-2.47-.61-3.71-.83-10.13-1.81-20.48-.01-29.5,5.2C11.78,11.73,4.54,21.17,1.51,32.46-1.51,43.75.04,55.54,5.88,65.67l107.83,186.75c8.1,14.03,22.84,21.88,37.97,21.88,3.71,0,7.44-.47,11.11-1.44,3.67-.97,7.27-2.43,10.7-4.42,9.81-5.66,16.59-14.57,19.79-24.59l4.94,8.56c8.1,14.03,22.84,21.88,37.98,21.88,3.71,0,7.44-.47,11.11-1.44,3.66-.97,7.26-2.43,10.7-4.42,20.9-12.07,28.08-38.89,16.02-59.79ZM166.32,256.03c-14.05,8.11-32.09,3.28-40.2-10.78L18.3,58.5c-3.93-6.81-4.97-14.74-2.94-22.33,2.04-7.59,6.9-13.94,13.71-17.87,4.54-2.62,9.57-3.96,14.67-3.96,2.55,0,5.13.34,7.66,1.02,7.59,2.04,13.94,6.9,17.87,13.71l20.77,35.96c.12.21.24.42.36.64l86.72,150.21c8.07,14.04,3.24,32.05-10.8,40.16ZM250.84,256.03c-4.62,2.66-9.66,3.93-14.64,3.93-10.18,0-20.11-5.27-25.56-14.71l-21.07-36.5L102.81,58.5c-.03-.06-.07-.12-.1-.18-3.84-6.77-4.85-14.62-2.83-22.15,2.03-7.59,6.9-13.94,13.71-17.87,4.54-2.62,9.57-3.96,14.67-3.96,2.56,0,5.13.34,7.66,1.02,7.59,2.04,13.94,6.9,17.87,13.71l107.83,186.76c8.11,14.05,3.28,32.09-10.77,40.2Z"/>
          <path class="cls-3" d="M86.03,32.46c.18-.68.38-1.35.59-2.02l-4.93-8.54c-5.84-10.12-15.28-17.37-26.57-20.39-1.23-.33-2.47-.61-3.71-.83v14.67c7.59,2.04,13.94,6.9,17.87,13.71l20.77,35.96c-5.54-9.98-6.97-21.52-4.01-32.57Z"/>
          <path class="cls-1" d="M210.64,245.25l-21.07-36.5c6.35,11.07,7.32,23.79,3.71,35.1l4.94,8.56c8.1,14.03,22.84,21.88,37.98,21.88v-14.34c-10.18,0-20.11-5.27-25.56-14.71Z"/>
          <path class="cls-4" d="M264.57,87.54c-15.14,0-29.88-7.85-37.98-21.87-5.85-10.12-7.4-21.92-4.37-33.21,3.03-11.29,10.27-20.73,20.39-26.57,10.12-5.85,21.92-7.4,33.21-4.37,11.29,3.03,20.73,10.27,26.57,20.39,5.85,10.12,7.4,21.92,4.37,33.21-3.03,11.29-10.27,20.73-20.39,26.57h0c-6.87,3.97-14.39,5.85-21.81,5.85ZM279.21,69.27c14.05-8.11,18.88-26.15,10.77-40.2-3.93-6.81-10.28-11.68-17.87-13.71-7.59-2.03-15.52-.99-22.33,2.94-6.81,3.93-11.68,10.28-13.71,17.87-2.03,7.59-.99,15.52,2.94,22.33,8.11,14.05,26.15,18.88,40.2,10.77"/>
        </g>
        <g>
          <path class="cls-5" d="M619.87,77.34h39.47l-60.72,193.2h-32.02l-34.22-118.13-34.22,118.13h-32.57l-60.44-193.2h40.57l36.71,124.48,35.6-124.48h29.53l35.6,124.48,36.71-124.48Z"/>
          <path class="cls-5" d="M664.3,173.94c0-55.75,43.33-100.19,94.94-100.19s94.94,44.44,94.94,100.19-43.33,100.19-94.94,100.19-94.94-44.44-94.94-100.19ZM814.72,173.94c0-35.88-25.67-62.1-55.48-62.1s-55.48,26.22-55.48,62.1,25.67,62.1,55.48,62.1,55.48-26.22,55.48-62.1Z"/>
          <path class="cls-5" d="M986.39,270.54l-38.64-69.55h-25.67v69.55h-39.47V77.34h78.38c37.54,0,65.41,25.94,65.41,62.38,0,24.56-15.46,45.54-40.02,55.2l45.54,75.62h-45.54ZM922.08,114.87v50.23h37.81c15.46,0,27.05-10.49,27.05-25.12s-11.59-25.12-27.05-25.12h-37.81Z"/>
          <path class="cls-5" d="M1210.21,270.54h-49.13l-63.48-86.66v86.66h-39.47V77.34h39.47v83.63l60.44-83.63h46.64l-69.28,93.84,74.8,99.36Z"/>
          <path class="cls-5" d="M1226.21,270.54V77.34h39.47v155.11h89.7v38.09h-129.17Z"/>
          <path class="cls-5" d="M1457.5,77.34h42.5l-62.93,121.16v72.04h-39.47v-72.04l-62.93-121.16h43.88l39.47,79.21,39.47-79.21Z"/>
        </g>
      </g>
      <g>
        <path class="cls-5" d="M939.59,335.99h6.1l14.46,39.85h-5.91l-4.04-11.94h-15.76l-4.31,11.94h-5.53l15-39.85ZM948.46,359.51l-6.05-17.61-6.43,17.61h12.48Z"/>
        <path class="cls-5" d="M980.56,347.96c.92.63,1.86,1.56,2.81,2.77v-3.66h4.5v26.42c0,3.69-.54,6.6-1.62,8.74-2.02,3.94-5.83,5.91-11.44,5.91-3.12,0-5.74-.7-7.87-2.1s-3.32-3.59-3.57-6.58h4.96c.23,1.3.7,2.31,1.4,3.01,1.1,1.09,2.82,1.63,5.18,1.63,3.72,0,6.16-1.32,7.31-3.96.68-1.56,1-4.33.94-8.33-.97,1.48-2.14,2.59-3.51,3.31s-3.18,1.09-5.43,1.09c-3.13,0-5.88-1.12-8.23-3.35-2.35-2.23-3.53-5.93-3.53-11.08,0-4.86,1.18-8.66,3.55-11.39,2.37-2.73,5.23-4.1,8.58-4.1,2.27,0,4.25.56,5.95,1.68ZM981.16,353.19c-1.48-1.74-3.36-2.6-5.64-2.6-3.42,0-5.76,1.61-7.02,4.83-.67,1.72-1,3.97-1,6.75,0,3.27.66,5.76,1.98,7.47s3.1,2.56,5.33,2.56c3.49,0,5.95-1.58,7.37-4.75.79-1.79,1.19-3.88,1.19-6.27,0-3.6-.74-6.27-2.21-8Z"/>
        <path class="cls-5" d="M1013.25,347.59c1.92.97,3.39,2.22,4.39,3.76.97,1.46,1.62,3.17,1.94,5.13.29,1.34.43,3.47.43,6.4h-21.13c.09,2.96.78,5.33,2.07,7.11,1.29,1.79,3.29,2.68,6,2.68,2.53,0,4.55-.85,6.06-2.53.84-.98,1.44-2.12,1.79-3.41h4.8c-.13,1.07-.55,2.26-1.26,3.57-.71,1.31-1.51,2.38-2.39,3.21-1.47,1.45-3.29,2.42-5.47,2.93-1.17.29-2.49.43-3.96.43-3.59,0-6.64-1.32-9.14-3.95s-3.75-6.32-3.75-11.05,1.26-8.45,3.77-11.37c2.52-2.91,5.81-4.37,9.87-4.37,2.05,0,4.03.48,5.96,1.45ZM1015,359c-.2-2.12-.65-3.81-1.37-5.07-1.33-2.35-3.54-3.53-6.64-3.53-2.22,0-4.09.81-5.6,2.43-1.51,1.62-2.3,3.68-2.39,6.17h16.01Z"/>
        <path class="cls-5" d="M1026.21,346.79h4.64v4.12c1.37-1.7,2.83-2.92,4.37-3.66,1.54-.74,3.25-1.11,5.13-1.11,4.12,0,6.91,1.44,8.36,4.31.8,1.57,1.19,3.83,1.19,6.75v18.64h-4.96v-18.31c0-1.77-.26-3.2-.79-4.29-.87-1.81-2.44-2.71-4.72-2.71-1.16,0-2.11.12-2.85.35-1.34.4-2.51,1.19-3.53,2.39-.81.96-1.34,1.95-1.59,2.97-.24,1.02-.37,2.48-.37,4.38v15.22h-4.88v-29.05Z"/>
        <path class="cls-5" d="M1076.3,348.34c2.05,1.59,3.29,4.33,3.7,8.22h-4.75c-.29-1.79-.95-3.28-1.98-4.46-1.03-1.18-2.69-1.78-4.96-1.78-3.11,0-5.34,1.52-6.67,4.55-.87,1.97-1.3,4.4-1.3,7.29s.61,5.36,1.84,7.34c1.23,1.99,3.16,2.98,5.81,2.98,2.03,0,3.63-.62,4.82-1.85,1.18-1.23,2-2.92,2.46-5.07h4.75c-.54,3.85-1.9,6.67-4.07,8.45-2.17,1.78-4.95,2.67-8.33,2.67-3.8,0-6.83-1.39-9.09-4.16-2.26-2.78-3.39-6.24-3.39-10.4,0-5.1,1.24-9.07,3.72-11.91,2.48-2.84,5.63-4.26,9.47-4.26,3.27,0,5.94.8,7.99,2.39Z"/>
        <path class="cls-5" d="M1102.83,347.59c1.92.97,3.39,2.22,4.39,3.76.97,1.46,1.62,3.17,1.94,5.13.29,1.34.43,3.47.43,6.4h-21.13c.09,2.96.78,5.33,2.07,7.11s3.29,2.68,6,2.68c2.53,0,4.55-.85,6.06-2.53.84-.98,1.44-2.12,1.79-3.41h4.8c-.13,1.07-.55,2.26-1.26,3.57-.71,1.31-1.51,2.38-2.39,3.21-1.47,1.45-3.29,2.42-5.47,2.93-1.17.29-2.49.43-3.96.43-3.59,0-6.64-1.32-9.14-3.95-2.5-2.63-3.75-6.32-3.75-11.05s1.26-8.45,3.77-11.37c2.52-2.91,5.81-4.37,9.87-4.37,2.05,0,4.03.48,5.96,1.45ZM1104.58,359c-.2-2.12-.65-3.81-1.37-5.07-1.33-2.35-3.54-3.53-6.64-3.53-2.22,0-4.09.81-5.6,2.43s-2.3,3.68-2.39,6.17h16.01Z"/>
        <path class="cls-5" d="M1147.18,347.69c.86.54,1.85,1.49,2.95,2.85v-14.68h4.69v39.99h-4.39v-4.04c-1.14,1.79-2.48,3.08-4.03,3.88-1.55.8-3.32,1.19-5.32,1.19-3.22,0-6.02-1.36-8.38-4.08-2.36-2.72-3.54-6.34-3.54-10.86,0-4.23,1.08-7.9,3.23-11,2.15-3.1,5.23-4.65,9.23-4.65,2.22,0,4.07.47,5.57,1.41ZM1136.28,369.47c1.31,2.1,3.42,3.15,6.32,3.15,2.25,0,4.1-.97,5.55-2.92,1.45-1.94,2.17-4.73,2.17-8.37s-.75-6.39-2.24-8.15-3.34-2.64-5.53-2.64c-2.45,0-4.43.94-5.95,2.82-1.52,1.88-2.28,4.65-2.28,8.3,0,3.11.66,5.71,1.97,7.81Z"/>
        <path class="cls-5" d="M1180.07,347.59c1.92.97,3.39,2.22,4.39,3.76.97,1.46,1.62,3.17,1.94,5.13.29,1.34.43,3.47.43,6.4h-21.13c.09,2.96.78,5.33,2.07,7.11,1.29,1.79,3.29,2.68,6,2.68,2.53,0,4.55-.85,6.06-2.53.84-.98,1.44-2.12,1.79-3.41h4.8c-.13,1.07-.55,2.26-1.26,3.57-.71,1.31-1.51,2.38-2.39,3.21-1.47,1.45-3.29,2.42-5.47,2.93-1.17.29-2.49.43-3.96.43-3.59,0-6.64-1.32-9.14-3.95-2.5-2.63-3.75-6.32-3.75-11.05s1.26-8.45,3.77-11.37c2.52-2.91,5.81-4.37,9.87-4.37,2.05,0,4.03.48,5.96,1.45ZM1181.81,359c-.2-2.12-.65-3.81-1.37-5.07-1.33-2.35-3.54-3.53-6.64-3.53-2.22,0-4.09.81-5.6,2.43-1.51,1.62-2.3,3.68-2.39,6.17h16.01Z"/>
        <path class="cls-5" d="M1208.59,346.79h4.64v5.02c.38-.98,1.31-2.17,2.79-3.57,1.48-1.4,3.19-2.1,5.13-2.1.09,0,.24,0,.46.03s.59.05,1.11.11v5.15c-.29-.05-.56-.09-.8-.11s-.51-.03-.8-.03c-2.46,0-4.35.79-5.67,2.37-1.32,1.58-1.98,3.4-1.98,5.47v16.71h-4.88v-29.05Z"/>
        <path class="cls-5" d="M1244.9,347.59c1.92.97,3.39,2.22,4.39,3.76.97,1.46,1.62,3.17,1.94,5.13.29,1.34.43,3.47.43,6.4h-21.13c.09,2.96.78,5.33,2.07,7.11s3.29,2.68,6,2.68c2.53,0,4.55-.85,6.06-2.53.84-.98,1.44-2.12,1.79-3.41h4.8c-.13,1.07-.55,2.26-1.26,3.57-.71,1.31-1.51,2.38-2.39,3.21-1.47,1.45-3.29,2.42-5.47,2.93-1.17.29-2.49.43-3.96.43-3.59,0-6.64-1.32-9.14-3.95-2.5-2.63-3.75-6.32-3.75-11.05s1.26-8.45,3.77-11.37c2.52-2.91,5.81-4.37,9.87-4.37,2.05,0,4.03.48,5.96,1.45ZM1246.65,359c-.2-2.12-.65-3.81-1.37-5.07-1.33-2.35-3.54-3.53-6.64-3.53-2.22,0-4.09.81-5.6,2.43s-2.3,3.68-2.39,6.17h16.01Z"/>
        <path class="cls-5" d="M1277.05,348.34c2.05,1.59,3.29,4.33,3.7,8.22h-4.75c-.29-1.79-.95-3.28-1.98-4.46-1.03-1.18-2.69-1.78-4.96-1.78-3.11,0-5.34,1.52-6.67,4.55-.87,1.97-1.3,4.4-1.3,7.29s.61,5.36,1.84,7.34c1.23,1.99,3.16,2.98,5.81,2.98,2.03,0,3.63-.62,4.82-1.85,1.18-1.23,2-2.92,2.46-5.07h4.75c-.54,3.85-1.9,6.67-4.07,8.45s-4.95,2.67-8.33,2.67c-3.8,0-6.83-1.39-9.09-4.16-2.26-2.78-3.39-6.24-3.39-10.4,0-5.1,1.24-9.07,3.72-11.91,2.48-2.84,5.63-4.26,9.47-4.26,3.27,0,5.94.8,7.99,2.39Z"/>
        <path class="cls-5" d="M1285.77,346.79h4.64v5.02c.38-.98,1.31-2.17,2.79-3.57,1.48-1.4,3.19-2.1,5.13-2.1.09,0,.24,0,.46.03s.59.05,1.11.11v5.15c-.29-.05-.56-.09-.8-.11s-.51-.03-.8-.03c-2.46,0-4.35.79-5.67,2.37-1.32,1.58-1.98,3.4-1.98,5.47v16.71h-4.88v-29.05Z"/>
        <path class="cls-5" d="M1309.02,346.79v19.29c0,1.48.23,2.69.69,3.64.85,1.74,2.42,2.6,4.73,2.6,3.31,0,5.57-1.52,6.76-4.56.65-1.63.98-3.86.98-6.7v-14.27h4.88v29.05h-4.61l.05-4.29c-.62,1.1-1.39,2.03-2.32,2.79-1.83,1.52-4.05,2.28-6.65,2.28-4.06,0-6.83-1.38-8.3-4.15-.8-1.48-1.2-3.46-1.2-5.94v-19.75h4.99Z"/>
        <path class="cls-5" d="M1336.01,338.68h4.94v8.11h4.64v3.99h-4.64v18.96c0,1.01.34,1.69,1.03,2.03.38.2,1.01.3,1.9.3.23,0,.49,0,.76-.02s.59-.04.95-.09v3.88c-.56.16-1.14.28-1.75.35-.61.07-1.26.11-1.97.11-2.28,0-3.83-.58-4.64-1.75s-1.22-2.68-1.22-4.54v-19.23h-3.93v-3.99h3.93v-8.11Z"/>
        <path class="cls-5" d="M1368.42,347.59c1.92.97,3.39,2.22,4.39,3.76.97,1.46,1.62,3.17,1.94,5.13.29,1.34.43,3.47.43,6.4h-21.13c.09,2.96.78,5.33,2.07,7.11,1.29,1.79,3.29,2.68,6,2.68,2.53,0,4.55-.85,6.06-2.53.84-.98,1.44-2.12,1.79-3.41h4.8c-.13,1.07-.55,2.26-1.26,3.57-.71,1.31-1.51,2.38-2.39,3.21-1.47,1.45-3.29,2.42-5.47,2.93-1.17.29-2.49.43-3.96.43-3.59,0-6.64-1.32-9.14-3.95-2.5-2.63-3.75-6.32-3.75-11.05s1.26-8.45,3.77-11.37c2.52-2.91,5.81-4.37,9.87-4.37,2.05,0,4.03.48,5.96,1.45ZM1370.16,359c-.2-2.12-.65-3.81-1.37-5.07-1.33-2.35-3.54-3.53-6.64-3.53-2.22,0-4.09.81-5.6,2.43-1.51,1.62-2.3,3.68-2.39,6.17h16.01Z"/>
        <path class="cls-5" d="M1381.37,346.79h4.83v4.12c1.16-1.43,2.21-2.47,3.15-3.12,1.61-1.1,3.44-1.65,5.48-1.65,2.31,0,4.18.57,5.59,1.71.8.65,1.52,1.61,2.17,2.88,1.09-1.56,2.36-2.71,3.83-3.46s3.11-1.13,4.94-1.13c3.91,0,6.57,1.41,7.98,4.23.76,1.52,1.14,3.56,1.14,6.13v19.34h-5.07v-20.18c0-1.94-.48-3.26-1.45-3.99-.97-.72-2.15-1.09-3.54-1.09-1.92,0-3.57.64-4.95,1.93s-2.08,3.43-2.08,6.43v16.9h-4.96v-18.96c0-1.97-.24-3.41-.71-4.31-.74-1.36-2.13-2.03-4.15-2.03-1.84,0-3.52.71-5.03,2.14-1.51,1.43-2.27,4.01-2.27,7.76v15.41h-4.88v-29.05Z"/>
        <path class="cls-5" d="M1445.6,347.59c1.92.97,3.39,2.22,4.39,3.76.97,1.46,1.62,3.17,1.94,5.13.29,1.34.43,3.47.43,6.4h-21.13c.09,2.96.78,5.33,2.07,7.11,1.29,1.79,3.29,2.68,6,2.68,2.53,0,4.55-.85,6.06-2.53.84-.98,1.44-2.12,1.79-3.41h4.8c-.13,1.07-.55,2.26-1.26,3.57-.71,1.31-1.51,2.38-2.39,3.21-1.47,1.45-3.29,2.42-5.47,2.93-1.17.29-2.49.43-3.96.43-3.59,0-6.64-1.32-9.14-3.95s-3.75-6.32-3.75-11.05,1.26-8.45,3.77-11.37c2.52-2.91,5.81-4.37,9.87-4.37,2.05,0,4.03.48,5.96,1.45ZM1447.34,359c-.2-2.12-.65-3.81-1.37-5.07-1.33-2.35-3.54-3.53-6.64-3.53-2.22,0-4.09.81-5.6,2.43-1.51,1.62-2.3,3.68-2.39,6.17h16.01Z"/>
        <path class="cls-5" d="M1458.55,346.79h4.64v4.12c1.37-1.7,2.83-2.92,4.37-3.66,1.54-.74,3.25-1.11,5.13-1.11,4.12,0,6.91,1.44,8.36,4.31.8,1.57,1.19,3.83,1.19,6.75v18.64h-4.96v-18.31c0-1.77-.26-3.2-.79-4.29-.87-1.81-2.44-2.71-4.72-2.71-1.16,0-2.11.12-2.85.35-1.34.4-2.51,1.19-3.53,2.39-.81.96-1.34,1.95-1.59,2.97-.24,1.02-.37,2.48-.37,4.38v15.22h-4.88v-29.05Z"/>
        <path class="cls-5" d="M1490.42,338.68h4.94v8.11h4.64v3.99h-4.64v18.96c0,1.01.34,1.69,1.03,2.03.38.2,1.01.3,1.9.3.23,0,.49,0,.76-.02s.59-.04.95-.09v3.88c-.56.16-1.14.28-1.75.35-.61.07-1.26.11-1.97.11-2.28,0-3.83-.58-4.64-1.75s-1.22-2.68-1.22-4.54v-19.23h-3.93v-3.99h3.93v-8.11Z"/>
      </g>
    </g>
  </g>
</svg>